# xmcd CD database file
#
# Track frame offsets:
#	150
#	19106
#	40552
#	59490
#	77440
#	96439
#	117773
#	139163
#	155573
#	170917
#	190208
#	206275
#
# Disc length: 2952 seconds
#
# Revision: 0
# Processed by: cddbd v1.5.2PL0 Copyright (c) Steve Scherf et al.
# Submitted via: CDex 1.70
#
DISCID=9d0b860c
DTITLE=Doug Adkins - Lonesome
DYEAR=2016
DGENRE=Country
TTITLE0=Little Thing Called Love
TTITLE1=Forever By Your Side
TTITLE2=You Take My Breath Away
TTITLE3=Lonesome
TTITLE4=Good Morning Beautiful
TTITLE5=Without You To Hold
TTITLE6=I Believe
TTITLE7=Just A Nigthmare
TTITLE8=Habbits And Hearts
TTITLE9=Jim
TTITLE10=You Don't Need To Call Me
TTITLE11=Houston
EXTD=YEAR: 2016
EXTT0=
EXTT1=
EXTT2=
EXTT3=
EXTT4=
EXTT5=
EXTT6=
EXTT7=
EXTT8=
EXTT9=
EXTT10=
EXTT11=
PLAYORDER=
